<svg width="121" height="116" viewBox="0 0 121 116" fill="none" xmlns="http://www.w3.org/2000/svg">
<path d="M60.2434 115.087C89.6877 115.087 113.557 91.218 113.557 61.7737C113.557 32.3293 89.6877 8.45996 60.2434 8.45996C30.799 8.45996 6.92969 32.3293 6.92969 61.7737C6.92969 91.218 30.799 115.087 60.2434 115.087Z" fill="url(#paint0_linear_420_151)"/>
<path d="M89.0052 20.8657H29.9449C26.2636 20.8657 23.2793 23.85 23.2793 27.5313H95.6708C95.6708 23.85 92.6866 20.8657 89.0052 20.8657Z" fill="url(#paint1_linear_420_151)"/>
<path d="M23.2793 27.3491H95.6708V82.4837C95.6708 84.935 94.6971 87.286 92.9637 89.0193C91.2304 90.7527 88.8795 91.7264 86.4281 91.7264H32.522C30.0707 91.7264 27.7198 90.7527 25.9864 89.0193C24.2531 87.286 23.2793 84.935 23.2793 82.4837V27.3491Z" fill="url(#paint2_linear_420_151)"/>
<path d="M83.2282 34.313H35.7474C34.7586 34.313 33.957 35.1137 33.957 36.1015C33.957 37.0892 34.7586 37.8899 35.7474 37.8899H83.2282C84.2171 37.8899 85.0187 37.0892 85.0187 36.1015C85.0187 35.1137 84.2171 34.313 83.2282 34.313Z" fill="url(#paint3_linear_420_151)"/>
<path d="M83.2282 49.5103H35.7474C34.7586 49.5103 33.957 50.311 33.957 51.2987C33.957 52.2865 34.7586 53.0872 35.7474 53.0872H83.2282C84.2171 53.0872 85.0187 52.2865 85.0187 51.2987C85.0187 50.311 84.2171 49.5103 83.2282 49.5103Z" fill="url(#paint4_linear_420_151)"/>
<path d="M83.2282 64.7075H35.7474C34.7586 64.7075 33.957 65.5082 33.957 66.496C33.957 67.4837 34.7586 68.2845 35.7474 68.2845H83.2282C84.2171 68.2845 85.0187 67.4837 85.0187 66.496C85.0187 65.5082 84.2171 64.7075 83.2282 64.7075Z" fill="url(#paint5_linear_420_151)"/>
<path d="M83.2282 79.9043H35.7474C34.7586 79.9043 33.957 80.705 33.957 81.6928C33.957 82.6805 34.7586 83.4812 35.7474 83.4812H83.2282C84.2171 83.4812 85.0187 82.6805 85.0187 81.6928C85.0187 80.705 84.2171 79.9043 83.2282 79.9043Z" fill="url(#paint6_linear_420_151)"/>
<g filter="url(#filter0_d_420_151)">
<path d="M35.4244 61.4478H10.1416C8.11043 61.4478 6.46387 63.0943 6.46387 65.1255V101.263C6.46387 103.294 8.11043 104.941 10.1416 104.941H35.4244C37.4555 104.941 39.1021 103.294 39.1021 101.263V65.1255C39.1021 63.0943 37.4555 61.4478 35.4244 61.4478Z" fill="url(#paint7_linear_420_151)"/>
</g>
<g filter="url(#filter1_d_420_151)">
<path d="M107.396 5H79.4705C78.1692 5 77.1143 6.05491 77.1143 7.35621V20.482C77.1143 21.7833 78.1692 22.8382 79.4705 22.8382H107.396C108.698 22.8382 109.752 21.7833 109.752 20.482V7.35621C109.752 6.05491 108.698 5 107.396 5Z" fill="url(#paint8_linear_420_151)"/>
</g>
<path d="M32.6034 79.5264H12.9631C12.3018 79.5264 11.7656 80.0625 11.7656 80.7239V80.7277C11.7656 81.3891 12.3018 81.9252 12.9631 81.9252H32.6034C33.2647 81.9252 33.8009 81.3891 33.8009 80.7277V80.7239C33.8009 80.0625 33.2647 79.5264 32.6034 79.5264Z" fill="url(#paint9_linear_420_151)"/>
<path d="M32.6147 96.4058H13.1432C12.4876 96.4058 11.9561 96.9252 11.9561 97.5659V97.5697C11.9561 98.2104 12.4876 98.7298 13.1432 98.7298H32.6147C33.2704 98.7298 33.8019 98.2104 33.8019 97.5697V97.5659C33.8019 96.9252 33.2704 96.4058 32.6147 96.4058Z" fill="url(#paint10_linear_420_151)"/>
<path d="M32.6147 87.5742H13.1432C12.4876 87.5742 11.9561 88.0936 11.9561 88.7344V88.7381C11.9561 89.3788 12.4876 89.8982 13.1432 89.8982H32.6147C33.2704 89.8982 33.8019 89.3788 33.8019 88.7381V88.7344C33.8019 88.0936 33.2704 87.5742 32.6147 87.5742Z" fill="url(#paint11_linear_420_151)"/>
<path d="M20.1439 67.0283H14.4045C13.1332 67.0283 12.1025 68.0589 12.1025 69.3303V70.923C12.1025 72.1944 13.1332 73.225 14.4045 73.225H20.1439C21.4152 73.225 22.4459 72.1944 22.4459 70.923V69.3303C22.4459 68.0589 21.4152 67.0283 20.1439 67.0283Z" fill="url(#paint12_linear_420_151)"/>
<path d="M84.0067 16.6262C85.5028 16.6262 86.7156 15.4134 86.7156 13.9174C86.7156 12.4213 85.5028 11.2085 84.0067 11.2085C82.5107 11.2085 81.2979 12.4213 81.2979 13.9174C81.2979 15.4134 82.5107 16.6262 84.0067 16.6262Z" fill="#DAD0FF"/>
<path d="M93.6864 16.6262C95.1825 16.6262 96.3953 15.4134 96.3953 13.9174C96.3953 12.4213 95.1825 11.2085 93.6864 11.2085C92.1903 11.2085 90.9775 12.4213 90.9775 13.9174C90.9775 15.4134 92.1903 16.6262 93.6864 16.6262Z" fill="#DAD0FF"/>
<path d="M103.368 16.6262C104.864 16.6262 106.077 15.4134 106.077 13.9174C106.077 12.4213 104.864 11.2085 103.368 11.2085C101.872 11.2085 100.659 12.4213 100.659 13.9174C100.659 15.4134 101.872 16.6262 103.368 16.6262Z" fill="#DAD0FF"/>
<g filter="url(#filter2_f_420_151)">
<ellipse cx="75.4256" cy="82.1142" rx="17.0515" ry="2.51898" fill="#EC5575" fill-opacity="0.56"/>
</g>
<path d="M55.7188 98.8467C55.9593 97.8501 57.3768 97.8501 57.6174 98.8467L58.427 102.201C58.513 102.557 58.7911 102.835 59.1472 102.921L62.5012 103.731C63.4978 103.971 63.4978 105.389 62.5012 105.629L59.1472 106.439C58.7911 106.525 58.513 106.803 58.427 107.159L57.6174 110.513C57.3768 111.51 55.9593 111.51 55.7188 110.513L54.9091 107.159C54.8232 106.803 54.5451 106.525 54.189 106.439L50.8349 105.629C49.8384 105.389 49.8384 103.971 50.8349 103.731L54.189 102.921C54.5451 102.835 54.8232 102.557 54.9091 102.201L55.7188 98.8467Z" fill="url(#paint13_linear_420_151)"/>
<path d="M17.1397 9.60349C17.3802 8.60694 18.7977 8.60694 19.0383 9.60349L19.8479 12.9575C19.9339 13.3137 20.212 13.5917 20.5681 13.6777L23.9221 14.4873C24.9187 14.7279 24.9187 16.1454 23.9221 16.386L20.5681 17.1956C20.212 17.2816 19.9339 17.5596 19.8479 17.9158L19.0383 21.2698C18.7977 22.2664 17.3802 22.2664 17.1397 21.2698L16.33 17.9158C16.2441 17.5596 15.966 17.2816 15.6099 17.1956L12.2558 16.386C11.2593 16.1454 11.2593 14.7279 12.2558 14.4873L15.6099 13.6777C15.966 13.5917 16.2441 13.3137 16.33 12.9575L17.1397 9.60349Z" fill="url(#paint14_linear_420_151)"/>
<path fill-rule="evenodd" clip-rule="evenodd" d="M58.1179 10.1469C59.0168 10.1469 59.7455 9.41815 59.7455 8.51924C59.7455 7.62033 59.0168 6.89162 58.1179 6.89162C57.219 6.89162 56.4902 7.62033 56.4902 8.51924C56.4902 9.41815 57.219 10.1469 58.1179 10.1469ZM58.1179 11.3676C59.691 11.3676 60.9662 10.0923 60.9662 8.51924C60.9662 6.94614 59.691 5.6709 58.1179 5.6709C56.5448 5.6709 55.2695 6.94614 55.2695 8.51924C55.2695 10.0923 56.5448 11.3676 58.1179 11.3676Z" fill="url(#paint15_linear_420_151)"/>
<path d="M108.728 54.9652C108.573 54.3581 109.134 53.8112 109.737 53.9807L113.808 55.1247C114.411 55.2942 114.604 56.053 114.156 56.4905L111.13 59.4441C110.681 59.8817 109.928 59.6698 109.773 59.0628L108.728 54.9652Z" fill="url(#paint16_linear_420_151)"/>
<path d="M13.3031 47.977C13.9103 47.823 14.4565 48.3841 14.2863 48.987L13.137 53.0566C12.9667 53.6594 12.2077 53.8519 11.7707 53.403L8.82102 50.373C8.38403 49.9241 8.59686 49.1705 9.20411 49.0165L13.3031 47.977Z" fill="url(#paint17_linear_420_151)"/>
<path d="M90.9261 104.218C91.5334 104.064 92.0796 104.625 91.9093 105.228L90.76 109.298C90.5898 109.901 89.8307 110.093 89.3937 109.644L86.4441 106.614C86.0071 106.165 86.2199 105.412 86.8272 105.258L90.9261 104.218Z" fill="url(#paint18_linear_420_151)"/>
<path fill-rule="evenodd" clip-rule="evenodd" d="M112.499 33.8519C113.398 33.8519 114.126 33.1232 114.126 32.2243C114.126 31.3254 113.398 30.5967 112.499 30.5967C111.6 30.5967 110.871 31.3254 110.871 32.2243C110.871 33.1232 111.6 33.8519 112.499 33.8519ZM112.499 35.0727C114.072 35.0727 115.347 33.7974 115.347 32.2243C115.347 30.6512 114.072 29.376 112.499 29.376C110.926 29.376 109.65 30.6512 109.65 32.2243C109.65 33.7974 110.926 35.0727 112.499 35.0727Z" fill="url(#paint19_linear_420_151)"/>
<path d="M108.5 106.341L115.361 98.7773L116.394 99.7146C117.397 100.624 117.997 101.894 118.063 103.246C118.129 104.598 117.655 105.921 116.745 106.924V106.924C115.836 107.927 114.565 108.527 113.213 108.593C111.861 108.659 110.539 108.185 109.536 107.275L108.503 106.338L108.5 106.341Z" fill="#B2A8EE"/>
<defs>
<filter id="filter0_d_420_151" x="0.886198" y="57.7293" width="46.5828" height="57.4373" filterUnits="userSpaceOnUse" color-interpolation-filters="sRGB">
<feFlood flood-opacity="0" result="BackgroundImageFix"/>
<feColorMatrix in="SourceAlpha" type="matrix" values="0 0 0 0 0 0 0 0 0 0 0 0 0 0 0 0 0 0 127 0" result="hardAlpha"/>
<feOffset dx="1.39442" dy="3.25364"/>
<feGaussianBlur stdDeviation="3.48604"/>
<feComposite in2="hardAlpha" operator="out"/>
<feColorMatrix type="matrix" values="0 0 0 0 0.104618 0 0 0 0 0.465612 0 0 0 0 0.545833 0 0 0 0.15 0"/>
<feBlend mode="normal" in2="BackgroundImageFix" result="effect1_dropShadow_420_151"/>
<feBlend mode="normal" in="SourceGraphic" in2="effect1_dropShadow_420_151" result="shape"/>
</filter>
<filter id="filter1_d_420_151" x="73.8606" y="0.816748" width="44.7236" height="29.9233" filterUnits="userSpaceOnUse" color-interpolation-filters="sRGB">
<feFlood flood-opacity="0" result="BackgroundImageFix"/>
<feColorMatrix in="SourceAlpha" type="matrix" values="0 0 0 0 0 0 0 0 0 0 0 0 0 0 0 0 0 0 127 0" result="hardAlpha"/>
<feOffset dx="2.78883" dy="1.85922"/>
<feGaussianBlur stdDeviation="3.02124"/>
<feComposite in2="hardAlpha" operator="out"/>
<feColorMatrix type="matrix" values="0 0 0 0 0.104618 0 0 0 0 0.465612 0 0 0 0 0.545833 0 0 0 0.09 0"/>
<feBlend mode="normal" in2="BackgroundImageFix" result="effect1_dropShadow_420_151"/>
<feBlend mode="normal" in="SourceGraphic" in2="effect1_dropShadow_420_151" result="shape"/>
</filter>
<filter id="filter2_f_420_151" x="48.6856" y="69.9068" width="53.4803" height="24.4148" filterUnits="userSpaceOnUse" color-interpolation-filters="sRGB">
<feFlood flood-opacity="0" result="BackgroundImageFix"/>
<feBlend mode="normal" in="SourceGraphic" in2="BackgroundImageFix" result="shape"/>
<feGaussianBlur stdDeviation="4.84419" result="effect1_foregroundBlur_420_151"/>
</filter>
<linearGradient id="paint0_linear_420_151" x1="59.8324" y1="-8.90029" x2="60.9246" y2="178.329" gradientUnits="userSpaceOnUse">
<stop stop-color="white" stop-opacity="0"/>
<stop offset="1" stop-color="#BACCFD"/>
</linearGradient>
<linearGradient id="paint1_linear_420_151" x1="14.4624" y1="25.9704" x2="20.7693" y2="2.97787" gradientUnits="userSpaceOnUse">
<stop stop-color="#623CEA"/>
<stop offset="1" stop-color="#A38AFD"/>
</linearGradient>
<linearGradient id="paint2_linear_420_151" x1="21.1057" y1="75.6242" x2="125.687" y2="77.4835" gradientUnits="userSpaceOnUse">
<stop stop-color="white"/>
<stop offset="1" stop-color="#BCF3FF"/>
</linearGradient>
<linearGradient id="paint3_linear_420_151" x1="31.7974" y1="37.7424" x2="88.0389" y2="37.7424" gradientUnits="userSpaceOnUse">
<stop stop-color="#A38AFD"/>
<stop offset="1" stop-color="#D2F7FF"/>
</linearGradient>
<linearGradient id="paint4_linear_420_151" x1="31.7974" y1="52.9397" x2="88.0389" y2="52.9397" gradientUnits="userSpaceOnUse">
<stop stop-color="#A38AFD"/>
<stop offset="1" stop-color="#D2F7FF"/>
</linearGradient>
<linearGradient id="paint5_linear_420_151" x1="31.7974" y1="68.137" x2="88.0389" y2="68.137" gradientUnits="userSpaceOnUse">
<stop stop-color="#A38AFD"/>
<stop offset="1" stop-color="#D2F7FF"/>
</linearGradient>
<linearGradient id="paint6_linear_420_151" x1="31.7974" y1="83.3337" x2="88.0389" y2="83.3337" gradientUnits="userSpaceOnUse">
<stop stop-color="#A38AFD"/>
<stop offset="1" stop-color="#D2F7FF"/>
</linearGradient>
<linearGradient id="paint7_linear_420_151" x1="5.48388" y1="94.0622" x2="68.0405" y2="99.2" gradientUnits="userSpaceOnUse">
<stop stop-color="white"/>
<stop offset="1" stop-color="#BCF3FF"/>
</linearGradient>
<linearGradient id="paint8_linear_420_151" x1="76.1343" y1="18.3765" x2="123.261" y2="19.7397" gradientUnits="userSpaceOnUse">
<stop stop-color="white"/>
<stop offset="1" stop-color="#BCF3FF"/>
</linearGradient>
<linearGradient id="paint9_linear_420_151" x1="36.3581" y1="81.9967" x2="9.86419" y2="81.9967" gradientUnits="userSpaceOnUse">
<stop stop-color="#BACCFD"/>
<stop offset="1" stop-color="#6C63FF"/>
</linearGradient>
<linearGradient id="paint10_linear_420_151" x1="36.3372" y1="98.7991" x2="10.071" y2="98.7991" gradientUnits="userSpaceOnUse">
<stop stop-color="#BACCFD"/>
<stop offset="1" stop-color="#6C63FF"/>
</linearGradient>
<linearGradient id="paint11_linear_420_151" x1="36.3372" y1="89.9675" x2="10.071" y2="89.9675" gradientUnits="userSpaceOnUse">
<stop stop-color="#BACCFD"/>
<stop offset="1" stop-color="#6C63FF"/>
</linearGradient>
<linearGradient id="paint12_linear_420_151" x1="29.6181" y1="73.1654" x2="10.7935" y2="73.1654" gradientUnits="userSpaceOnUse">
<stop offset="0.243799" stop-color="#D2F7FF"/>
<stop offset="1" stop-color="#A38AFD"/>
</linearGradient>
<linearGradient id="paint13_linear_420_151" x1="44.5235" y1="109.872" x2="66.378" y2="102.536" gradientUnits="userSpaceOnUse">
<stop stop-color="#623CEA"/>
<stop offset="1" stop-color="#A38AFD"/>
</linearGradient>
<linearGradient id="paint14_linear_420_151" x1="5.94441" y1="20.6286" x2="27.7989" y2="13.2925" gradientUnits="userSpaceOnUse">
<stop stop-color="#623CEA"/>
<stop offset="1" stop-color="#A38AFD"/>
</linearGradient>
<linearGradient id="paint15_linear_420_151" x1="54.5757" y1="10.0336" x2="60.9499" y2="7.89386" gradientUnits="userSpaceOnUse">
<stop stop-color="#623CEA"/>
<stop offset="1" stop-color="#A38AFD"/>
</linearGradient>
<linearGradient id="paint16_linear_420_151" x1="109.112" y1="61.5939" x2="113.493" y2="53.0461" gradientUnits="userSpaceOnUse">
<stop stop-color="#623CEA"/>
<stop offset="1" stop-color="#A38AFD"/>
</linearGradient>
<linearGradient id="paint17_linear_420_151" x1="6.67388" y1="48.3519" x2="15.216" y2="52.7447" gradientUnits="userSpaceOnUse">
<stop stop-color="#623CEA"/>
<stop offset="1" stop-color="#A38AFD"/>
</linearGradient>
<linearGradient id="paint18_linear_420_151" x1="84.2969" y1="104.593" x2="92.839" y2="108.986" gradientUnits="userSpaceOnUse">
<stop stop-color="#623CEA"/>
<stop offset="1" stop-color="#A38AFD"/>
</linearGradient>
<linearGradient id="paint19_linear_420_151" x1="108.957" y1="33.7386" x2="115.331" y2="31.5989" gradientUnits="userSpaceOnUse">
<stop stop-color="#623CEA"/>
<stop offset="1" stop-color="#A38AFD"/>
</linearGradient>
</defs>
</svg>
