<svg width="31" height="31" viewBox="0 0 31 31" fill="none" xmlns="http://www.w3.org/2000/svg">
<path fill-rule="evenodd" clip-rule="evenodd" d="M9.78809 9.5C9.78809 6.56599 12.1666 4.1875 15.1006 4.1875C18.0346 4.1875 20.4131 6.56599 20.4131 9.5C20.4131 12.434 18.0346 14.8125 15.1006 14.8125C12.1666 14.8125 9.78809 12.434 9.78809 9.5ZM15.1006 6.0625C13.2021 6.0625 11.6631 7.60152 11.6631 9.5C11.6631 11.3985 13.2021 12.9375 15.1006 12.9375C16.9991 12.9375 18.5381 11.3985 18.5381 9.5C18.5381 7.60152 16.9991 6.0625 15.1006 6.0625Z" fill="#9A9A9A"/>
<path fill-rule="evenodd" clip-rule="evenodd" d="M10.1006 18.5625C8.54729 18.5625 7.28809 19.8217 7.28809 21.375V22.8604C7.28809 22.883 7.30448 22.9023 7.3268 22.9059C12.4752 23.7465 17.7259 23.7465 22.8744 22.9059C22.8967 22.9023 22.9131 22.883 22.9131 22.8604V21.375C22.9131 19.8217 21.6539 18.5625 20.1006 18.5625H19.6745C19.6416 18.5625 19.6088 18.5677 19.5775 18.5779L18.4956 18.9312C16.2896 19.6515 13.9116 19.6515 11.7056 18.9312L10.6237 18.5779C10.5924 18.5677 10.5596 18.5625 10.5267 18.5625H10.1006ZM5.41309 21.375C5.41309 18.7862 7.51175 16.6875 10.1006 16.6875H10.5267C10.7573 16.6875 10.9865 16.724 11.2057 16.7956L12.2876 17.1488C14.1154 17.7457 16.0857 17.7457 17.9136 17.1488L18.9955 16.7956C19.2147 16.724 19.4439 16.6875 19.6745 16.6875H20.1006C22.6894 16.6875 24.7881 18.7862 24.7881 21.375V22.8604C24.7881 23.8019 24.1057 24.6047 23.1765 24.7564C17.828 25.6296 12.3732 25.6296 7.02468 24.7564C6.09544 24.6047 5.41309 23.8019 5.41309 22.8604V21.375Z" fill="#9A9A9A"/>
</svg>
